<svg width="18" height="22" viewBox="0 0 18 22" fill="none" xmlns="http://www.w3.org/2000/svg">
<path d="M11.6565 11.0212C12.4449 10.5367 13.0988 9.84494 13.5537 9.01439C14.0086 8.18384 14.2486 7.24326 14.25 6.28571V2.35714C14.25 1.73199 14.0129 1.13244 13.591 0.690391C13.169 0.248341 12.5967 0 12 0H6C5.40326 0 4.83097 0.248341 4.40901 0.690391C3.98705 1.13244 3.75 1.73199 3.75 2.35714V6.28571C3.7514 7.24326 3.99141 8.18384 4.44628 9.01439C4.90115 9.84494 5.55512 10.5367 6.3435 11.0212C4.62816 11.1296 3.01687 11.9194 1.83815 13.2294C0.65943 14.5394 0.00203644 16.2711 0 18.0714V20.4286C0 20.8453 0.158035 21.245 0.43934 21.5397C0.720644 21.8344 1.10218 22 1.5 22H16.5C16.8978 22 17.2794 21.8344 17.5607 21.5397C17.842 21.245 18 20.8453 18 20.4286V18.0714C17.998 16.2711 17.3406 14.5394 16.1618 13.2294C14.9831 11.9194 13.3718 11.1296 11.6565 11.0212ZM6 1.57143H12C12.1989 1.57143 12.3897 1.65421 12.5303 1.80156C12.671 1.94891 12.75 2.14876 12.75 2.35714V4.71429H5.25V2.35714C5.25 2.14876 5.32902 1.94891 5.46967 1.80156C5.61032 1.65421 5.80109 1.57143 6 1.57143ZM5.25 6.28571H12.75C12.75 7.32764 12.3549 8.32688 11.6517 9.06363C10.9484 9.80038 9.99456 10.2143 9 10.2143C8.00544 10.2143 7.05161 9.80038 6.34835 9.06363C5.64509 8.32688 5.25 7.32764 5.25 6.28571ZM5.25 15.7143C5.39834 15.7143 5.54334 15.7604 5.66668 15.8467C5.79001 15.933 5.88614 16.0557 5.94291 16.1993C5.99968 16.3429 6.01453 16.5009 5.98559 16.6533C5.95665 16.8057 5.88522 16.9457 5.78033 17.0556C5.67544 17.1655 5.5418 17.2403 5.39632 17.2706C5.25083 17.3009 5.10003 17.2854 4.96299 17.2259C4.82594 17.1664 4.70881 17.0657 4.6264 16.9365C4.54399 16.8073 4.5 16.6554 4.5 16.5C4.5 16.2916 4.57902 16.0918 4.71967 15.9444C4.86032 15.7971 5.05109 15.7143 5.25 15.7143ZM1.5 20.4286V18.0714C1.50135 17.0319 1.78389 16.0141 2.31485 15.1359C2.84582 14.2577 3.60347 13.5552 4.5 13.1096V14.2882C3.99959 14.4736 3.57783 14.8383 3.30928 15.3179C3.04072 15.7975 2.94265 16.3611 3.0324 16.9091C3.12216 17.4572 3.39395 17.9543 3.79976 18.3127C4.20556 18.6711 4.71923 18.8677 5.25 18.8677C5.78077 18.8677 6.29444 18.6711 6.70024 18.3127C7.10605 17.9543 7.37784 17.4572 7.4676 16.9091C7.55735 16.3611 7.45928 15.7975 7.19072 15.3179C6.92217 14.8383 6.50041 14.4736 6 14.2882V12.6382C6.24816 12.5973 6.4988 12.5749 6.75 12.5714H11.25V13.4687C10.6079 13.6424 10.0388 14.0341 9.63172 14.5825C9.22464 15.131 9.00249 15.8053 9 16.5V18.0714C9 18.2798 9.07902 18.4797 9.21967 18.627C9.36032 18.7744 9.55109 18.8571 9.75 18.8571H10.5C10.6989 18.8571 10.8897 18.7744 11.0303 18.627C11.171 18.4797 11.25 18.2798 11.25 18.0714C11.25 17.863 11.171 17.6632 11.0303 17.5158C10.8897 17.3685 10.6989 17.2857 10.5 17.2857V16.5C10.5 16.0832 10.658 15.6835 10.9393 15.3888C11.2206 15.0941 11.6022 14.9286 12 14.9286C12.3978 14.9286 12.7794 15.0941 13.0607 15.3888C13.342 15.6835 13.5 16.0832 13.5 16.5V17.2857C13.3011 17.2857 13.1103 17.3685 12.9697 17.5158C12.829 17.6632 12.75 17.863 12.75 18.0714C12.75 18.2798 12.829 18.4797 12.9697 18.627C13.1103 18.7744 13.3011 18.8571 13.5 18.8571H14.25C14.4489 18.8571 14.6397 18.7744 14.7803 18.627C14.921 18.4797 15 18.2798 15 18.0714V16.5C14.9975 15.8053 14.7754 15.131 14.3683 14.5825C13.9612 14.0341 13.3921 13.6424 12.75 13.4687V12.8071C13.8319 13.1462 14.7808 13.8413 15.4562 14.7895C16.1316 15.7376 16.4976 16.8884 16.5 18.0714V20.4286H1.5Z" fill="white"/>
</svg>
