<svg width="22" height="22" viewBox="0 0 22 22" fill="none" xmlns="http://www.w3.org/2000/svg">
<path d="M14.6667 0H7.33333C5.38911 0.0022643 3.52516 0.775608 2.15038 2.15038C0.775608 3.52516 0.0022643 5.38911 0 7.33333V14.6667C0.0022643 16.6109 0.775608 18.4748 2.15038 19.8496C3.52516 21.2244 5.38911 21.9977 7.33333 22H14.6667C16.6109 21.9977 18.4748 21.2244 19.8496 19.8496C21.2244 18.4748 21.9977 16.6109 22 14.6667V7.33333C21.9977 5.38911 21.2244 3.52516 19.8496 2.15038C18.4748 0.775608 16.6109 0.0022643 14.6667 0ZM20.3704 14.6667C20.3688 16.1789 19.7673 17.6287 18.698 18.698C17.6287 19.7673 16.1789 20.3688 14.6667 20.3704H9.77778C8.04896 20.3704 6.39095 19.6836 5.16849 18.4611C3.94603 17.2387 3.25926 15.5807 3.25926 13.8519C3.25926 12.0446 3.399 10.4182 1.62963 9.0697V7.33333C1.63125 5.82111 2.23269 4.37129 3.30199 3.30199C4.37129 2.23269 5.82111 1.63125 7.33333 1.62963H14.6667C16.1789 1.63125 17.6287 2.23269 18.698 3.30199C19.7673 4.37129 20.3688 5.82111 20.3704 7.33333V14.6667ZM16.5978 11C16.5978 11.2161 16.5119 11.4234 16.3591 11.5762C16.2063 11.729 15.9991 11.8148 15.783 11.8148H7.96441L10.6741 15.0451C10.7466 15.1265 10.8021 15.2217 10.8373 15.3249C10.8724 15.4281 10.8864 15.5373 10.8786 15.6461C10.8707 15.7549 10.8411 15.8609 10.7915 15.958C10.7419 16.0551 10.6734 16.1413 10.5898 16.2114C10.5063 16.2815 10.4096 16.3342 10.3054 16.3662C10.2012 16.3983 10.0916 16.4091 9.98309 16.398C9.87462 16.3869 9.76947 16.3542 9.67388 16.3017C9.57829 16.2493 9.4942 16.1781 9.42659 16.0926L5.59248 11.5239C5.59004 11.5211 5.58881 11.5174 5.58637 11.5146C5.577 11.5031 5.56926 11.4909 5.5607 11.4791C5.54644 11.46 5.53381 11.4384 5.51996 11.4196C5.51181 11.4058 5.50204 11.3931 5.4943 11.3789C5.48656 11.3646 5.48411 11.3553 5.47841 11.343C5.46846 11.322 5.45975 11.3003 5.45233 11.2783C5.44663 11.2624 5.43889 11.2473 5.43441 11.231C5.42993 11.2147 5.42911 11.2066 5.42626 11.1939C5.42066 11.1718 5.41631 11.1493 5.41322 11.1267C5.41037 11.1104 5.4063 11.0941 5.40467 11.0774C5.40304 11.0607 5.40467 11.0481 5.40467 11.0334C5.40467 11.0187 5.401 11.0114 5.401 11C5.401 10.9886 5.40385 10.978 5.40467 10.9666C5.40548 10.9552 5.40467 10.9373 5.40467 10.9226C5.40467 10.9079 5.41037 10.8896 5.41322 10.8733C5.41631 10.8507 5.42066 10.8282 5.42626 10.8061C5.42911 10.7934 5.43074 10.7812 5.43441 10.769C5.43807 10.7568 5.44663 10.7376 5.45233 10.7217C5.45804 10.7059 5.46863 10.6777 5.47841 10.657C5.48411 10.6447 5.48818 10.6329 5.4943 10.6211C5.50041 10.6093 5.51181 10.5942 5.51996 10.5804C5.53219 10.56 5.54481 10.5396 5.5607 10.5209C5.56926 10.5091 5.577 10.4969 5.58637 10.4854C5.58881 10.4826 5.59004 10.4789 5.59248 10.4761L9.42659 5.90741C9.56762 5.74924 9.76472 5.65223 9.97608 5.63697C10.1874 5.6217 10.3964 5.68938 10.5587 5.82565C10.721 5.96191 10.8238 6.15605 10.8454 6.36686C10.8669 6.57767 10.8055 6.78859 10.6741 6.95485L7.96441 10.1852H15.783C15.9991 10.1852 16.2063 10.271 16.3591 10.4238C16.5119 10.5766 16.5978 10.7839 16.5978 11Z" fill="white"/>
</svg>
